PathFileType  4	(X/Y/Z) C:\Users\antoi\Documents\MyRepositories\mobilecap\ResultsAnalysis
DataRate	CameraRate	NumFrames	NumMarkers	Units	OrigDataRate	OrigDataStartFrame	OrigNumFrames
100.0	100.0	5	51	mm	100.0	58	153
Frame#	Time	r_knee			r_shank_antsup			r_ankle			r_calc			r_5meta			r_toe			L_knee			L_shank_antsup			L_ankle			L_calc			L_5meta			L_toe			r_sh2			r_sh3			r_sh4			L_sh2			L_sh3			r_thigh1			r_thigh2			r_thigh3			r_thigh4			r_thigh5			L_thigh1			L_thigh2			L_thigh3			L_thigh4			r.ASIS			r.PSIS			L.ASIS			L.PSIS			C7			R_Shoulder			L_Shoulder			R_Sternum			L_Sternum			R_humerus			R_elbow_med			R_elbow_lat			R_forearm			R_wrist_radius			R_wrist_ulna			L_humerus			L_elbow_med			L_elbow_lat			L_forearm			L_wrist_radius			L_wrist_ulna			R_HJC			L_HJC			R_HJC_reg			L_HJC_reg			
		X1	Y1	Z1	X2	Y2	Z2	X3	Y3	Z3	X4	Y4	Z4	X5	Y5	Z5	X6	Y6	Z6	X7	Y7	Z7	X8	Y8	Z8	X9	Y9	Z9	X10	Y10	Z10	X11	Y11	Z11	X12	Y12	Z12	X13	Y13	Z13	X14	Y14	Z14	X15	Y15	Z15	X16	Y16	Z16	X17	Y17	Z17	X18	Y18	Z18	X19	Y19	Z19	X20	Y20	Z20	X21	Y21	Z21	X22	Y22	Z22	X23	Y23	Z23	X24	Y24	Z24	X25	Y25	Z25	X26	Y26	Z26	X27	Y27	Z27	X28	Y28	Z28	X29	Y29	Z29	X30	Y30	Z30	X31	Y31	Z31	X32	Y32	Z32	X33	Y33	Z33	X34	Y34	Z34	X35	Y35	Z35	X36	Y36	Z36	X37	Y37	Z37	X38	Y38	Z38	X39	Y39	Z39	X40	Y40	Z40	X41	Y41	Z41	X42	Y42	Z42	X43	Y43	Z43	X44	Y44	Z44	X45	Y45	Z45	X46	Y46	Z46	X47	Y47	Z47	X48	Y48	Z48	X49	Y49	Z49	X50	Y50	Z50	X51	Y51	Z51	

58	0.57000000	466.97341	589.51987	-75.39670	447.19233	436.68059	-91.32935	273.95388	111.31157	-127.64595	218.67750	93.87830	-194.14761	402.54282	37.62997	-94.65899	447.86159	58.85091	-142.73975	741.29031	599.54420	-354.28488	846.03870	430.78283	-331.24443	867.89180	116.26898	-320.00143	827.83050	70.59915	-250.63995	1026.67711	82.72708	-357.38566	1055.59387	133.18364	-306.27684	411.26458	330.90863	-107.40139	384.31749	449.17354	-50.90573	342.63487	343.57495	-60.09724	774.30667	413.75444	-381.61477	801.61863	299.97727	-361.02272	577.20428	864.36357	-26.92425	569.82384	753.18262	-37.93217	503.66337	736.27692	-30.66108	463.18668	877.27772	-43.31486	452.12282	760.04720	-47.13367	703.71070	894.60792	-370.60785	743.54794	766.12816	-361.77333	599.86266	866.37627	-384.04732	643.26058	735.41532	-381.29675	667.20650	1146.56487	-66.75531	474.13924	1175.30827	-146.35969	642.03536	1144.58983	-344.62261	465.37660	1173.58464	-238.52160	526.06337	1665.69610	-187.60766	601.13725	1609.83344	-19.89995	575.10104	1638.37060	-368.69035	664.73343	1573.56912	-169.60914	664.00648	1577.48033	-226.80966	573.88436	1342.84879	55.15114	477.77700	1229.64560	24.76575	491.18835	1254.48025	96.73701	628.08253	1086.00111	111.30117	683.54097	1008.64371	104.28957	656.09388	998.51900	131.15797	560.89665	1343.29761	-432.03903	469.84386	1271.56350	-379.17442	488.04098	1267.45103	-454.54568	576.59698	1080.58355	-481.85378	608.15808	1006.34750	-474.70927	582.97300	1006.56698	-497.46596	587.79114	1050.08704	-101.90898	566.38174	1051.75532	-298.21406	594.86214	1063.07206	-98.62367	577.43595	1059.64347	-281.91388	
59	0.58000000	476.34654	588.38661	-75.85146	454.46079	435.78505	-91.82461	275.26063	113.03793	-127.67628	219.72042	96.68740	-194.05395	402.83327	37.80444	-94.69344	448.43156	58.52092	-142.75732	752.01604	597.99081	-352.94537	855.25477	427.90870	-328.78322	872.77348	113.67102	-317.41769	831.42085	68.79127	-248.23522	1030.73074	77.83450	-354.08757	1060.55627	126.97314	-302.20852	416.75508	330.56233	-107.80478	391.82257	449.38057	-51.43443	348.66196	344.72888	-60.57358	783.48208	411.60030	-379.52125	809.27810	297.64905	-358.59974	587.57957	863.15768	-27.52049	579.89399	752.00337	-38.39118	513.73074	735.28842	-31.23475	473.55392	876.38648	-43.99980	462.25571	759.19032	-47.87477	715.08149	893.04946	-371.10592	754.57862	764.51814	-361.30196	611.00506	864.96020	-383.74360	654.39732	733.72939	-380.68184	678.42891	1145.26199	-67.22282	485.45057	1174.00283	-147.14024	653.51053	1143.05569	-345.27289	476.74161	1172.22367	-239.24781	537.34527	1664.45938	-189.37366	612.29970	1608.98496	-21.55661	586.17733	1636.51379	-370.39102	675.87946	1572.25823	-171.14637	675.12649	1576.01137	-228.37697	584.44983	1342.17874	53.91800	488.03473	1229.17126	23.59328	501.45720	1254.04917	95.53216	637.46564	1084.87296	110.51103	692.52248	1007.17911	103.64693	664.97397	997.22952	130.51656	571.96437	1341.22272	-432.85263	481.00208	1269.59714	-379.57815	499.04168	1265.32568	-454.98444	586.59398	1078.07141	-482.40752	617.03412	1003.22359	-475.46930	592.44425	1003.94132	-498.01579	599.00250	1048.78218	-102.44983	577.77435	1050.29514	-298.77618	606.12329	1061.69530	-99.10527	588.78223	1058.15226	-282.50883	
60	0.59000000	486.34502	587.26993	-76.30207	462.12955	434.87663	-92.30877	276.79555	115.15158	-127.63232	220.92759	99.88560	-193.89709	403.15788	38.01313	-94.70565	449.05881	58.16615	-142.73339	762.72394	596.60559	-351.70009	864.32329	425.11953	-326.41042	877.33269	111.31700	-315.13526	834.42202	67.57296	-246.14989	1034.05885	72.34490	-351.17062	1065.12856	119.88808	-298.48430	422.56457	330.30188	-108.17351	399.69338	449.69259	-52.00201	355.03519	346.00722	-60.98824	792.61199	409.68187	-377.47340	816.84802	295.54097	-356.29529	598.24753	861.98684	-28.13384	590.36336	750.86096	-38.85189	524.16009	734.27785	-31.80696	484.22640	875.43382	-44.74182	472.78174	758.25122	-48.71810	726.58637	891.60044	-371.73498	765.66715	763.02286	-360.92324	622.23977	863.75452	-383.30796	665.46906	732.22195	-379.94579	689.81660	1144.02381	-67.73717	496.94626	1172.79557	-147.94753	665.11759	1141.67214	-345.98700	488.23148	1171.00800	-240.02767	548.68685	1663.34731	-191.21568	623.56615	1608.23918	-23.29025	597.32562	1634.76706	-372.16725	687.09258	1571.07430	-172.76332	686.32726	1574.68133	-230.02430	595.04306	1341.62562	52.63273	498.27684	1228.85870	22.39687	511.76265	1253.75293	94.28707	646.73178	1083.79332	109.68292	701.31999	1005.72050	102.95977	673.67895	995.97978	129.83766	583.08542	1339.25488	-433.73038	492.22039	1267.74304	-380.01304	510.09427	1263.30509	-455.43595	596.61555	1075.66740	-482.99112	626.03157	1000.21079	-476.25324	601.97993	1001.42487	-498.56146	610.36525	1047.55930	-103.07533	589.29748	1048.98008	-299.42014	617.59606	1060.36740	-99.64180	600.22671	1056.80460	-283.16216	
61	0.60000000	496.99877	586.18455	-76.74109	470.27017	433.98632	-92.77168	278.57802	117.73091	-127.47251	222.35252	103.54417	-193.67510	403.51270	38.26300	-94.69790	449.74255	57.78226	-142.67774	773.39783	595.45368	-350.63156	873.30190	422.52851	-324.23377	881.84884	109.28975	-313.25543	837.18018	67.01319	-244.49498	1036.99438	66.43424	-348.75422	1069.53753	112.24659	-295.33183	428.73685	330.16313	-108.49469	408.00410	450.12783	-52.58754	361.74515	347.40206	-61.33240	801.84272	408.09512	-375.61314	824.53309	293.75081	-354.28606	609.22349	860.88148	-28.73331	601.25275	749.77669	-39.28225	534.99165	733.26274	-32.38118	495.25127	874.43134	-45.56426	483.72860	757.25556	-49.65097	738.18260	890.33031	-372.46071	776.73647	761.67933	-360.65908	633.51732	862.82866	-382.77242	676.40260	730.98633	-379.12672	701.38305	1142.88076	-68.30058	508.60793	1171.70378	-148.74434	676.83918	1140.50067	-346.75506	499.82673	1169.98221	-240.82695	560.08006	1662.39932	-193.13342	634.90844	1607.62173	-25.09036	608.53656	1633.14767	-374.01660	698.36235	1570.05452	-174.45460	697.60059	1573.52428	-231.74825	605.65455	1341.20040	51.29670	508.53044	1228.70923	21.17035	522.10070	1253.60415	93.00044	655.88086	1082.77546	108.81553	709.93698	1004.28532	102.23252	682.21223	994.78371	129.12595	594.25929	1337.41507	-434.68165	503.50820	1266.01723	-380.49279	521.19633	1261.40738	-455.91579	606.66060	1073.38635	-483.59889	635.30052	997.42786	-477.01848	611.57181	999.04111	-499.09965	621.89003	1046.44543	-103.78407	600.93792	1047.86277	-300.14178	629.29501	1059.09017	-100.25841	611.78274	1055.65695	-283.89305	
62	0.61000000	508.32281	585.13337	-77.15657	478.96380	433.15553	-93.18836	280.65318	120.83411	-127.17387	224.06752	107.74917	-193.38867	403.89788	38.56117	-94.67432	450.48398	57.37203	-142.61703	784.09515	594.61092	-349.82046	882.25563	420.21338	-322.36336	886.39963	107.61958	-311.83959	839.86574	67.07348	-243.33584	1039.72605	60.34487	-346.92171	1073.83604	104.44205	-292.92175	435.32340	330.18604	-108.74910	416.85163	450.70893	-53.15991	368.82112	348.95254	-61.61041	811.27150	406.90418	-374.09697	832.42428	292.34078	-352.74294	620.53400	859.88455	-29.29871	612.59486	748.78260	-39.65773	546.29288	732.26397	-32.97223	506.67694	873.39890	-46.48859	495.13054	756.24246	-50.64908	749.84654	889.34258	-373.23318	787.77432	760.57007	-360.52124	644.82462	862.24394	-382.21552	687.22114	730.11240	-378.33541	713.14258	1141.88721	-68.91417	520.40095	1170.75224	-149.48671	688.64934	1139.60835	-347.56199	511.50017	1169.19152	-241.59704	571.51880	1661.65884	-195.12168	646.30163	1607.16816	-26.94431	619.79110	1631.68289	-375.92966	709.67962	1569.23921	-176.21184	708.93184	1572.57537	-233.54340	616.27914	1340.92564	49.90737	518.82608	1228.73585	19.89978	532.47485	1253.62280	91.66659	664.91412	1081.84145	107.90755	718.37962	1002.89887	101.47031	690.57632	993.66052	128.38430	605.48488	1335.73353	-435.70886	514.87718	1264.44355	-381.02458	532.34429	1259.66064	-456.44053	616.72982	1071.25137	-484.22739	644.94915	994.97989	-477.73593	621.20633	996.81565	-499.63715	633.58998	1045.48448	-104.56230	612.67836	1046.99970	-300.92382	641.22675	1057.88405	-100.97772	623.47146	1054.77057	-284.71714	
